<?xml version="1.0" encoding="UTF-8"?>
<svg xmlns="http://www.w3.org/2000/svg" version="1.1" width="250" height="250" viewBox="0 0 250 250"><rect x="0" y="0" width="250" height="250" fill="#ffffff"/><g transform="scale(7.576)"><g transform="translate(0,0)"><path fill-rule="evenodd" d="M9 0L9 1L8 1L8 2L9 2L9 3L8 3L8 4L10 4L10 7L11 7L11 4L12 4L12 5L13 5L13 4L14 4L14 7L15 7L15 8L13 8L13 6L12 6L12 9L15 9L15 8L17 8L17 9L18 9L18 10L15 10L15 11L14 11L14 12L13 12L13 13L12 13L12 11L13 11L13 10L11 10L11 11L10 11L10 9L11 9L11 8L6 8L6 9L7 9L7 10L6 10L6 11L4 11L4 10L5 10L5 8L0 8L0 9L2 9L2 11L0 11L0 13L3 13L3 11L4 11L4 12L6 12L6 13L5 13L5 14L4 14L4 15L5 15L5 16L1 16L1 15L3 15L3 14L1 14L1 15L0 15L0 16L1 16L1 17L2 17L2 20L1 20L1 18L0 18L0 20L1 20L1 21L0 21L0 25L1 25L1 22L2 22L2 23L3 23L3 24L2 24L2 25L3 25L3 24L4 24L4 25L5 25L5 24L4 24L4 23L5 23L5 22L6 22L6 23L8 23L8 27L9 27L9 24L11 24L11 23L10 23L10 22L11 22L11 21L12 21L12 22L13 22L13 23L12 23L12 25L13 25L13 24L14 24L14 25L16 25L16 26L15 26L15 27L14 27L14 28L15 28L15 27L16 27L16 28L17 28L17 30L18 30L18 31L19 31L19 30L20 30L20 28L22 28L22 29L23 29L23 30L22 30L22 31L20 31L20 33L21 33L21 32L22 32L22 33L26 33L26 32L27 32L27 33L28 33L28 32L31 32L31 33L32 33L32 32L31 32L31 31L32 31L32 30L31 30L31 31L30 31L30 29L29 29L29 28L31 28L31 27L32 27L32 26L33 26L33 24L32 24L32 26L30 26L30 25L29 25L29 24L31 24L31 23L32 23L32 22L33 22L33 21L32 21L32 20L31 20L31 19L32 19L32 18L33 18L33 17L32 17L32 16L31 16L31 15L32 15L32 14L33 14L33 13L31 13L31 15L30 15L30 16L31 16L31 19L30 19L30 17L29 17L29 15L28 15L28 14L27 14L27 13L30 13L30 12L31 12L31 11L32 11L32 10L33 10L33 9L32 9L32 8L31 8L31 9L30 9L30 8L29 8L29 9L30 9L30 10L28 10L28 12L27 12L27 11L25 11L25 10L27 10L27 9L28 9L28 8L27 8L27 9L26 9L26 8L24 8L24 9L23 9L23 5L24 5L24 4L25 4L25 2L23 2L23 1L24 1L24 0L19 0L19 1L17 1L17 0L16 0L16 1L14 1L14 3L13 3L13 4L12 4L12 2L13 2L13 1L11 1L11 2L10 2L10 0ZM16 1L16 2L17 2L17 3L16 3L16 4L15 4L15 5L16 5L16 4L17 4L17 3L18 3L18 4L20 4L20 3L21 3L21 7L22 7L22 5L23 5L23 4L24 4L24 3L23 3L23 2L22 2L22 3L21 3L21 1L19 1L19 3L18 3L18 2L17 2L17 1ZM10 3L10 4L11 4L11 3ZM8 5L8 7L9 7L9 5ZM18 5L18 6L17 6L17 8L18 8L18 9L19 9L19 7L20 7L20 5ZM15 6L15 7L16 7L16 6ZM18 6L18 7L19 7L19 6ZM24 6L24 7L25 7L25 6ZM20 8L20 10L18 10L18 11L17 11L17 12L18 12L18 13L20 13L20 12L21 12L21 13L22 13L22 14L23 14L23 15L24 15L24 16L25 16L25 17L24 17L24 18L23 18L23 17L22 17L22 16L20 16L20 14L19 14L19 15L18 15L18 14L17 14L17 16L16 16L16 17L14 17L14 18L13 18L13 17L12 17L12 15L13 15L13 16L14 16L14 15L15 15L15 14L16 14L16 13L14 13L14 14L12 14L12 13L11 13L11 12L10 12L10 13L9 13L9 9L8 9L8 10L7 10L7 11L6 11L6 12L7 12L7 13L6 13L6 14L5 14L5 15L6 15L6 16L7 16L7 17L6 17L6 18L7 18L7 17L8 17L8 22L9 22L9 21L11 21L11 20L9 20L9 19L10 19L10 18L9 18L9 17L11 17L11 18L13 18L13 19L12 19L12 21L14 21L14 22L16 22L16 23L14 23L14 24L16 24L16 23L17 23L17 24L19 24L19 25L20 25L20 22L18 22L18 21L20 21L20 20L21 20L21 23L22 23L22 24L21 24L21 25L22 25L22 27L23 27L23 25L24 25L24 22L26 22L26 21L27 21L27 23L26 23L26 24L27 24L27 23L28 23L28 24L29 24L29 21L30 21L30 23L31 23L31 20L30 20L30 19L29 19L29 17L27 17L27 14L26 14L26 15L25 15L25 13L24 13L24 14L23 14L23 13L22 13L22 12L23 12L23 11L24 11L24 10L25 10L25 9L24 9L24 10L21 10L21 9L22 9L22 8ZM3 9L3 10L4 10L4 9ZM30 10L30 11L29 11L29 12L30 12L30 11L31 11L31 10ZM7 11L7 12L8 12L8 11ZM15 11L15 12L16 12L16 11ZM18 11L18 12L20 12L20 11ZM21 11L21 12L22 12L22 11ZM26 12L26 13L27 13L27 12ZM10 13L10 14L9 14L9 16L8 16L8 15L7 15L7 14L6 14L6 15L7 15L7 16L8 16L8 17L9 17L9 16L10 16L10 15L11 15L11 13ZM17 16L17 17L16 17L16 18L14 18L14 19L15 19L15 20L16 20L16 19L17 19L17 18L20 18L20 19L18 19L18 20L17 20L17 21L16 21L16 22L17 22L17 21L18 21L18 20L20 20L20 19L21 19L21 20L22 20L22 21L23 21L23 22L22 22L22 23L23 23L23 22L24 22L24 21L23 21L23 20L25 20L25 21L26 21L26 20L27 20L27 21L29 21L29 19L28 19L28 18L27 18L27 17L26 17L26 18L24 18L24 19L23 19L23 18L21 18L21 17L18 17L18 16ZM3 17L3 18L4 18L4 19L3 19L3 20L2 20L2 22L3 22L3 23L4 23L4 22L5 22L5 21L6 21L6 22L7 22L7 21L6 21L6 20L7 20L7 19L6 19L6 20L5 20L5 18L4 18L4 17ZM27 19L27 20L28 20L28 19ZM3 20L3 22L4 22L4 21L5 21L5 20ZM6 24L6 25L7 25L7 24ZM22 24L22 25L23 25L23 24ZM25 25L25 28L28 28L28 25ZM11 26L11 27L10 27L10 28L8 28L8 33L11 33L11 32L9 32L9 31L10 31L10 30L11 30L11 29L12 29L12 30L13 30L13 31L12 31L12 33L13 33L13 32L14 32L14 33L19 33L19 32L17 32L17 31L16 31L16 30L15 30L15 29L12 29L12 27L13 27L13 26ZM18 26L18 27L17 27L17 28L19 28L19 27L20 27L20 26ZM26 26L26 27L27 27L27 26ZM29 26L29 27L30 27L30 26ZM10 28L10 29L9 29L9 30L10 30L10 29L11 29L11 28ZM23 28L23 29L24 29L24 31L25 31L25 32L26 32L26 31L25 31L25 29L24 29L24 28ZM18 29L18 30L19 30L19 29ZM26 29L26 30L27 30L27 32L28 32L28 31L29 31L29 30L27 30L27 29ZM14 31L14 32L16 32L16 31ZM22 31L22 32L23 32L23 31ZM0 0L0 7L7 7L7 0ZM1 1L1 6L6 6L6 1ZM2 2L2 5L5 5L5 2ZM26 0L26 7L33 7L33 0ZM27 1L27 6L32 6L32 1ZM28 2L28 5L31 5L31 2ZM0 26L0 33L7 33L7 26ZM1 27L1 32L6 32L6 27ZM2 28L2 31L5 31L5 28Z" fill="#000000"/></g></g></svg>
