<?xml version="1.0" encoding="UTF-8"?>
<svg xmlns="http://www.w3.org/2000/svg" version="1.1" width="250" height="250" viewBox="0 0 250 250"><rect x="0" y="0" width="250" height="250" fill="#ffffff"/><g transform="scale(7.576)"><g transform="translate(0,0)"><path fill-rule="evenodd" d="M9 0L9 1L8 1L8 2L9 2L9 3L8 3L8 4L10 4L10 7L11 7L11 4L12 4L12 5L13 5L13 4L14 4L14 7L15 7L15 8L13 8L13 6L12 6L12 9L15 9L15 8L17 8L17 9L18 9L18 10L15 10L15 11L14 11L14 12L13 12L13 13L12 13L12 11L13 11L13 10L11 10L11 11L10 11L10 9L11 9L11 8L6 8L6 9L5 9L5 8L0 8L0 9L1 9L1 13L0 13L0 14L1 14L1 15L2 15L2 16L5 16L5 15L7 15L7 16L6 16L6 17L7 17L7 16L8 16L8 12L9 12L9 13L10 13L10 14L9 14L9 15L10 15L10 16L9 16L9 17L10 17L10 16L11 16L11 13L12 13L12 14L14 14L14 13L16 13L16 14L15 14L15 15L14 15L14 16L13 16L13 15L12 15L12 17L13 17L13 18L10 18L10 19L9 19L9 20L8 20L8 21L9 21L9 20L10 20L10 19L11 19L11 21L10 21L10 23L8 23L8 22L4 22L4 21L5 21L5 20L6 20L6 21L7 21L7 20L6 20L6 19L7 19L7 18L5 18L5 17L3 17L3 18L5 18L5 19L3 19L3 20L4 20L4 21L2 21L2 22L4 22L4 25L8 25L8 27L9 27L9 25L10 25L10 28L11 28L11 29L9 29L9 28L8 28L8 33L9 33L9 30L11 30L11 29L12 29L12 30L13 30L13 31L12 31L12 33L13 33L13 32L14 32L14 33L19 33L19 32L17 32L17 30L18 30L18 31L19 31L19 30L20 30L20 28L22 28L22 29L23 29L23 30L22 30L22 31L20 31L20 33L21 33L21 32L22 32L22 33L26 33L26 32L27 32L27 33L28 33L28 32L31 32L31 33L32 33L32 32L31 32L31 31L32 31L32 30L31 30L31 31L30 31L30 29L29 29L29 28L31 28L31 27L32 27L32 26L33 26L33 24L32 24L32 26L30 26L30 25L29 25L29 24L31 24L31 23L32 23L32 22L33 22L33 21L32 21L32 20L31 20L31 19L32 19L32 18L33 18L33 17L32 17L32 16L31 16L31 15L32 15L32 14L33 14L33 13L31 13L31 15L30 15L30 16L31 16L31 19L30 19L30 17L29 17L29 15L28 15L28 14L27 14L27 13L30 13L30 12L31 12L31 11L32 11L32 10L33 10L33 9L32 9L32 8L31 8L31 9L30 9L30 8L29 8L29 9L30 9L30 10L28 10L28 12L27 12L27 11L25 11L25 10L27 10L27 9L28 9L28 8L27 8L27 9L26 9L26 8L24 8L24 9L23 9L23 5L24 5L24 4L25 4L25 2L23 2L23 1L24 1L24 0L19 0L19 1L17 1L17 0L16 0L16 1L14 1L14 3L13 3L13 4L12 4L12 2L13 2L13 1L11 1L11 2L10 2L10 0ZM16 1L16 2L17 2L17 3L16 3L16 4L15 4L15 5L16 5L16 4L17 4L17 3L18 3L18 4L20 4L20 3L21 3L21 7L22 7L22 5L23 5L23 4L24 4L24 3L23 3L23 2L22 2L22 3L21 3L21 1L19 1L19 3L18 3L18 2L17 2L17 1ZM10 3L10 4L11 4L11 3ZM8 5L8 7L9 7L9 5ZM18 5L18 6L17 6L17 8L18 8L18 9L19 9L19 7L20 7L20 5ZM15 6L15 7L16 7L16 6ZM18 6L18 7L19 7L19 6ZM24 6L24 7L25 7L25 6ZM20 8L20 10L18 10L18 11L17 11L17 12L18 12L18 13L20 13L20 12L21 12L21 13L22 13L22 14L23 14L23 15L24 15L24 16L25 16L25 17L24 17L24 18L23 18L23 17L22 17L22 16L20 16L20 14L19 14L19 15L18 15L18 14L17 14L17 16L16 16L16 17L14 17L14 18L13 18L13 19L12 19L12 21L11 21L11 24L10 24L10 25L11 25L11 26L13 26L13 27L12 27L12 29L15 29L15 30L17 30L17 28L19 28L19 27L20 27L20 26L18 26L18 27L17 27L17 28L16 28L16 27L15 27L15 26L16 26L16 25L14 25L14 24L16 24L16 23L17 23L17 24L19 24L19 25L20 25L20 22L18 22L18 21L20 21L20 20L21 20L21 23L22 23L22 24L21 24L21 25L22 25L22 27L23 27L23 25L24 25L24 22L26 22L26 21L27 21L27 23L26 23L26 24L27 24L27 23L28 23L28 24L29 24L29 21L30 21L30 23L31 23L31 20L30 20L30 19L29 19L29 17L27 17L27 14L26 14L26 15L25 15L25 13L24 13L24 14L23 14L23 13L22 13L22 12L23 12L23 11L24 11L24 10L25 10L25 9L24 9L24 10L21 10L21 9L22 9L22 8ZM3 9L3 10L2 10L2 13L1 13L1 14L3 14L3 15L5 15L5 13L6 13L6 14L7 14L7 13L6 13L6 12L7 12L7 11L6 11L6 12L4 12L4 13L3 13L3 11L5 11L5 9ZM6 9L6 10L8 10L8 9ZM30 10L30 11L29 11L29 12L30 12L30 11L31 11L31 10ZM15 11L15 12L16 12L16 11ZM18 11L18 12L20 12L20 11ZM21 11L21 12L22 12L22 11ZM10 12L10 13L11 13L11 12ZM26 12L26 13L27 13L27 12ZM17 16L17 17L16 17L16 18L14 18L14 19L15 19L15 20L16 20L16 19L17 19L17 18L20 18L20 19L18 19L18 20L17 20L17 21L16 21L16 22L14 22L14 21L12 21L12 22L13 22L13 23L12 23L12 25L13 25L13 24L14 24L14 23L16 23L16 22L17 22L17 21L18 21L18 20L20 20L20 19L21 19L21 20L22 20L22 21L23 21L23 22L22 22L22 23L23 23L23 22L24 22L24 21L23 21L23 20L25 20L25 21L26 21L26 20L27 20L27 21L29 21L29 19L28 19L28 18L27 18L27 17L26 17L26 18L24 18L24 19L23 19L23 18L21 18L21 17L18 17L18 16ZM0 18L0 20L2 20L2 18ZM27 19L27 20L28 20L28 19ZM0 21L0 25L1 25L1 21ZM6 23L6 24L8 24L8 23ZM2 24L2 25L3 25L3 24ZM22 24L22 25L23 25L23 24ZM25 25L25 28L28 28L28 25ZM26 26L26 27L27 27L27 26ZM29 26L29 27L30 27L30 26ZM14 27L14 28L15 28L15 27ZM23 28L23 29L24 29L24 31L25 31L25 32L26 32L26 31L25 31L25 29L24 29L24 28ZM18 29L18 30L19 30L19 29ZM26 29L26 30L27 30L27 32L28 32L28 31L29 31L29 30L27 30L27 29ZM14 31L14 32L15 32L15 31ZM22 31L22 32L23 32L23 31ZM10 32L10 33L11 33L11 32ZM0 0L0 7L7 7L7 0ZM1 1L1 6L6 6L6 1ZM2 2L2 5L5 5L5 2ZM26 0L26 7L33 7L33 0ZM27 1L27 6L32 6L32 1ZM28 2L28 5L31 5L31 2ZM0 26L0 33L7 33L7 26ZM1 27L1 32L6 32L6 27ZM2 28L2 31L5 31L5 28Z" fill="#000000"/></g></g></svg>
